{"title":"Grabbers 2012 DVDRip XviD UNiQUE","uid":7856388,"size":1572677747,"categoryP":"video","categoryS":"movies","magnet":"?xt=urn:btih:580743ab96383417cced55fb05f7a468b2e2db6b&amp;dn=Grabbers+2012+DVDRip+XviD+UNiQUE&amp;tr=udp%3A%2F%2Ftracker.openbittorrent.com%3A80&amp;tr=udp%3A%2F%2Fopen.demonii.com%3A1337&amp;tr=udp%3A%2F%2Ftracker.coppersurfer.tk%3A6969&amp;tr=udp%3A%2F%2Fexodus.desync.com%3A6969","seeders":1,"leechers":2,"uploader":"tykoon123","files":-1,"time":1353776841,"description":"Poster: &lt;a href=&quot;\nhttp://imgr.us/images/17fpwpu9marhodzz4f.jpg&quot; rel=&quot;nofollow&quot; target=&quot;_NEW&quot;&gt;\nhttp://imgr.us/images/17fpwpu9marhodzz4f.jpg&lt;/a&gt;\n\nInfo:\n\nFormat : AVI\nFormat/Info : Audio Video Interleave\nFile size : 1.45 GiB\nDuration : 1h 26mn\nOverall bit rate : 2 402 Kbps\nWriting application : VirtualDubMod 1.5.10.2 (build 2540/release)\nWriting library : VirtualDubMod build 2540/release\n\nVideo\nID : 0\nFormat : MPEG-4 Visual\nFormat profile : Advanced Simple@L5\nFormat settings, BVOP : 2\nFormat settings, QPel : No\nFormat settings, GMC : No warppoints\nFormat settings, Matrix : Default (H.263)\nMuxing mode : Packed bitstream\nCodec ID : XVID\nCodec ID/Hint : XviD\nDuration : 1h 26mn\nBit rate : 1 945 Kbps\nWidth : 720 pixels\nHeight : 304 pixels\nDisplay aspect ratio : 5:4\nOriginal display aspect ratio : 2.35:1\nFrame rate : 25.000 fps\nColor space : YUV\nChroma subsampling : 4:2:0\nBit depth : 8 bits\nScan type : Progressive\nCompression mode : Lossy\nBits/(Pixel*Frame) : 0.355\nStream size : 1.18 GiB (81%)\nWriting library : XviD 64\n\nAudio\nID : 1\nFormat : AC-3\nFormat/Info : Audio Coding 3\nMode extension : CM (complete main)\nFormat settings, Endianness : Big\nCodec ID : 2000\nDuration : 1h 26mn\nBit rate mode : Constant\nBit rate : 448 Kbps\nChannel(s) : 6 channels\nChannel positions : Front: L C R, Side: L R, LFE\nSampling rate : 48.0 KHz\nBit depth : 16 bits\nCompression mode : Lossy\nStream size : 278 MiB (19%)\nAlignment : Aligned on interleaves\nInterleave, duration : 40 ms (1.00 video frame)\nInterleave, preload duration : 512 ms\n &lt;a href=&quot;\nhttp://www.imdb.com/title/tt1525366/&quot; rel=&quot;nofollow&quot; target=&quot;_NEW&quot;&gt;\nhttp://www.imdb.com/title/tt1525366/&lt;/a&gt;\n\nRatings: 6.3/10 from 1,160 users\nReviews: 13 user | 82 critic\nWhen an island off the coast of Ireland is invaded by bloodsucking aliens, the heroes discover that getting drunk is the only way to survive.\n\nDirector: Jon Wright\nWriter: Kevin Lehane\nStars: Richard Coyle, Ruth Bradley and Russell Tovey | See full cast and crew\n\nSource Used\n\nRETAiL DVDR.....thehead and elvis......Thanks\nEnjoy\n\nScreens:\n &lt;a href=&quot;\nhttp://imgr.us/images/9uz9nrzcqrq7s612xm32.jpg&quot; rel=&quot;nofollow&quot; target=&quot;_NEW&quot;&gt;\nhttp://imgr.us/images/9uz9nrzcqrq7s612xm32.jpg&lt;/a&gt; &lt;a href=&quot;\nhttp://imgr.us/images/6gqjsqug69773vu393k3.jpg&quot; rel=&quot;nofollow&quot; target=&quot;_NEW&quot;&gt;\nhttp://imgr.us/images/6gqjsqug69773vu393k3.jpg&lt;/a&gt; &lt;a href=&quot;\nhttp://imgr.us/images/q9u4ltl6vm21iw55oom4.jpg&quot; rel=&quot;nofollow&quot; target=&quot;_NEW&quot;&gt;\nhttp://imgr.us/images/q9u4ltl6vm21iw55oom4.jpg&lt;/a&gt; &lt;a href=&quot;\nhttp://imgr.us/images/q35sktvn0lf9d3be8.jpg&quot; rel=&quot;nofollow&quot; target=&quot;_NEW&quot;&gt;\nhttp://imgr.us/images/q35sktvn0lf9d3be8.jpg&lt;/a&gt; &lt;a href=&quot;\nhttp://imgr.us/images/rwpr3a226nadwdiobx0.jpg&quot; rel=&quot;nofollow&quot; target=&quot;_NEW&quot;&gt;\nhttp://imgr.us/images/rwpr3a226nadwdiobx0.jpg&lt;/a&gt;","torrent":{"xt":"urn:btih:580743ab96383417cced55fb05f7a468b2e2db6b","amp;dn":"Grabbers+2012+DVDRip+XviD+UNiQUE","amp;tr":["udp%3A%2F%2Ftracker.openbittorrent.com%3A80","udp%3A%2F%2Fopen.demonii.com%3A1337","udp%3A%2F%2Ftracker.coppersurfer.tk%3A6969","udp%3A%2F%2Fexodus.desync.com%3A6969"],"infoHash":"580743ab96383417cced55fb05f7a468b2e2db6b","infoHashBuffer":{"type":"Buffer","data":[88,7,67,171,150,56,52,23,204,237,85,251,5,247,164,104,178,226,219,107]},"announce":[],"urlList":[]}}